<svg width="42" height="42" viewBox="0 0 42 42" fill="none" xmlns="http://www.w3.org/2000/svg">
<rect x="0.5" y="0.5" width="41" height="41" fill="#FFD600" stroke="black"/>
<circle cx="21" cy="21" r="15.5" fill="#D9D9D9" stroke="black"/>
<path d="M27.5 21C27.5 25.366 26.7248 29.2948 25.4917 32.1133C24.8748 33.5233 24.1531 34.633 23.3772 35.3832C22.6036 36.131 21.8011 36.5 21 36.5C20.1989 36.5 19.3964 36.131 18.6228 35.3832C17.8469 34.633 17.1252 33.5233 16.5083 32.1133C15.2752 29.2948 14.5 25.366 14.5 21C14.5 16.634 15.2752 12.7052 16.5083 9.8867C17.1252 8.47669 17.8469 7.36702 18.6228 6.61683C19.3964 5.86898 20.1989 5.5 21 5.5C21.8011 5.5 22.6036 5.86898 23.3772 6.61683C24.1531 7.36702 24.8748 8.47669 25.4917 9.8867C26.7248 12.7052 27.5 16.634 27.5 21Z" stroke="black"/>
<path d="M23.5 21C23.5 25.3971 23.1655 29.3648 22.6299 32.2216C22.3613 33.6541 22.0466 34.782 21.7106 35.54C21.5419 35.9207 21.3797 36.1803 21.236 36.3372C21.0914 36.4949 21.0129 36.5 21 36.5C20.9871 36.5 20.9086 36.4949 20.764 36.3372C20.6203 36.1803 20.4581 35.9207 20.2894 35.54C19.9534 34.782 19.6387 33.6541 19.3701 32.2216C18.8345 29.3648 18.5 25.3971 18.5 21C18.5 16.6029 18.8345 12.6352 19.3701 9.77844C19.6387 8.34593 19.9534 7.21796 20.2894 6.45999C20.4581 6.07928 20.6203 5.81968 20.764 5.66285C20.9086 5.50507 20.9871 5.5 21 5.5C21.0129 5.5 21.0914 5.50507 21.236 5.66285C21.3797 5.81968 21.5419 6.07928 21.7106 6.45999C22.0466 7.21796 22.3613 8.34593 22.6299 9.77844C23.1655 12.6352 23.5 16.6029 23.5 21Z" stroke="black"/>
<path d="M31.5 21C31.5 25.3302 30.2925 29.2285 28.3662 32.0304C26.4383 34.8346 23.8255 36.5 21 36.5C18.1745 36.5 15.5617 34.8346 13.6338 32.0304C11.7075 29.2285 10.5 25.3302 10.5 21C10.5 16.6698 11.7075 12.7715 13.6338 9.96956C15.5617 7.1654 18.1745 5.5 21 5.5C23.8255 5.5 26.4383 7.1654 28.3662 9.96956C30.2925 12.7715 31.5 16.6698 31.5 21Z" stroke="black"/>
<path d="M34.5 21C34.5 29.6252 28.3952 36.5 21 36.5C13.6048 36.5 7.5 29.6252 7.5 21C7.5 12.3748 13.6048 5.5 21 5.5C28.3952 5.5 34.5 12.3748 34.5 21Z" stroke="black"/>
<path d="M36.5 21C36.5 21.2664 36.272 21.6633 35.4882 22.1265C34.7379 22.57 33.619 22.9867 32.1924 23.3434C29.3471 24.0547 25.3897 24.5 21 24.5C16.6103 24.5 12.6529 24.0547 9.80756 23.3434C8.38102 22.9867 7.26206 22.57 6.51177 22.1265C5.72802 21.6633 5.5 21.2664 5.5 21C5.5 20.7336 5.72802 20.3367 6.51177 19.8735C7.26206 19.43 8.38102 19.0133 9.80756 18.6566C12.6529 17.9453 16.6103 17.5 21 17.5C25.3897 17.5 29.3471 17.9453 32.1924 18.6566C33.619 19.0133 34.7379 19.43 35.4882 19.8735C36.272 20.3367 36.5 20.7336 36.5 21Z" stroke="black"/>
<path d="M6 2L6.89806 4.76393H9.80423L7.45308 6.47214L8.35114 9.23607L6 7.52786L3.64886 9.23607L4.54692 6.47214L2.19577 4.76393H5.10194L6 2Z" fill="#FF0000"/>
<path d="M36 2L36.8981 4.76393H39.8042L37.4531 6.47214L38.3511 9.23607L36 7.52786L33.6489 9.23607L34.5469 6.47214L32.1958 4.76393H35.1019L36 2Z" fill="#FF0000"/>
<path d="M36 33L36.8981 35.7639H39.8042L37.4531 37.4721L38.3511 40.2361L36 38.5279L33.6489 40.2361L34.5469 37.4721L32.1958 35.7639H35.1019L36 33Z" fill="#FF0000"/>
<path d="M6 33L6.89806 35.7639H9.80423L7.45308 37.4721L8.35114 40.2361L6 38.5279L3.64886 40.2361L4.54692 37.4721L2.19577 35.7639H5.10194L6 33Z" fill="#FF0000"/>
</svg>
